<svg width="32" height="32" viewBox="0 0 32 32" fill="none" xmlns="http://www.w3.org/2000/svg">
<rect width="32" height="32" rx="5" fill="#6A0DAD"/>
<path d="M10.128 21.16C8.79467 21.16 7.72267 20.9893 6.912 20.648V19.112C7.37067 19.2827 7.86133 19.4213 8.384 19.528C8.91733 19.6347 9.44533 19.688 9.968 19.688C10.7893 19.688 11.4027 19.592 11.808 19.4C12.224 19.208 12.432 18.824 12.432 18.248C12.432 17.896 12.3467 17.6133 12.176 17.4C12.0053 17.1867 11.7227 17.0053 11.328 16.856C10.9333 16.696 10.3893 16.5307 9.696 16.36C8.58667 16.072 7.808 15.7093 7.36 15.272C6.912 14.824 6.688 14.2107 6.688 13.432C6.688 12.5253 7.01867 11.816 7.68 11.304C8.34133 10.792 9.328 10.536 10.64 10.536C11.2373 10.536 11.7973 10.5787 12.32 10.664C12.8533 10.7493 13.2693 10.8453 13.568 10.952V12.488C12.7573 12.1787 11.8613 12.024 10.88 12.024C10.112 12.024 9.51467 12.1253 9.088 12.328C8.66133 12.5307 8.448 12.8987 8.448 13.432C8.448 13.7413 8.52267 13.992 8.672 14.184C8.82133 14.376 9.07733 14.5413 9.44 14.68C9.81333 14.8187 10.3253 14.9733 10.976 15.144C11.8187 15.3573 12.4693 15.6133 12.928 15.912C13.3973 16.2 13.7227 16.5413 13.904 16.936C14.096 17.32 14.192 17.7573 14.192 18.248C14.192 19.1547 13.856 19.8693 13.184 20.392C12.512 20.904 11.4933 21.16 10.128 21.16Z" fill="#FFD700"/>
<path d="M21.931 23.752C21.1203 23.752 20.5283 23.5227 20.155 23.064C19.7817 22.6053 19.5843 21.9547 19.563 21.112C18.2297 20.9627 17.227 20.4667 16.555 19.624C15.8937 18.7707 15.563 17.5227 15.563 15.88C15.563 14.0027 15.9683 12.6427 16.779 11.8C17.5897 10.9573 18.811 10.536 20.443 10.536C22.0857 10.536 23.307 10.9573 24.107 11.8C24.9177 12.6427 25.323 14.0027 25.323 15.88C25.323 17.5547 24.971 18.8187 24.267 19.672C23.5737 20.5253 22.523 21.0107 21.115 21.128C21.1257 21.6187 21.2163 21.9547 21.387 22.136C21.5683 22.328 21.8723 22.424 22.299 22.424C22.683 22.424 23.0617 22.3707 23.435 22.264V23.56C23.2643 23.6133 23.0403 23.656 22.763 23.688C22.4857 23.7307 22.2083 23.752 21.931 23.752ZM20.443 19.688C21.5203 19.688 22.3097 19.3947 22.811 18.808C23.323 18.2107 23.579 17.2347 23.579 15.88C23.579 14.4507 23.323 13.4533 22.811 12.888C22.3097 12.312 21.5203 12.024 20.443 12.024C19.3763 12.024 18.587 12.312 18.075 12.888C17.5737 13.4533 17.323 14.4507 17.323 15.88C17.323 17.2347 17.5737 18.2107 18.075 18.808C18.587 19.3947 19.3763 19.688 20.443 19.688Z" fill="#FCFCFC"/>
</svg>
